# xmcd CD database file
#
# Track frame offsets:
#	150
#	10500
#	23287
#	35722
#	54297
#	70150
#	81607
#	101932
#	111975
#	127180
#	141682
#	154802
#	168595
#	184310
#
# Disc length: 2668 seconds
#
# Revision: 0
# Processed by: cddbd v1.5PL3 Copyright (c) Steve Scherf et al.
# Submitted via: CDex 1.50
#
DISCID=c90a6a0e
DTITLE=Anne Montgomery - Still Waters
DYEAR=1991
DGENRE=Country
TTITLE0=Train To Your Heart
TTITLE1=If Loving You Wasn't So Easy
TTITLE2=Crazy
TTITLE3=Home Away From Home
TTITLE4=Slowly Going Out Of His Mind
TTITLE5=Stand By Your Man
TTITLE6=Peaceful Easy Feeling
TTITLE7=Love To The Rescue
TTITLE8=She's A Lady
TTITLE9=I Have You
TTITLE10=Still Waters Murrumbidgee
TTITLE11=I Tell It Like It Used To Be
TTITLE12=Head Over Heart
TTITLE13=Someone Is Falling In Love
EXTD=YEAR: 1991
EXTT0=
EXTT1=
EXTT2=
EXTT3=
EXTT4=
EXTT5=
EXTT6=
EXTT7=
EXTT8=
EXTT9=
EXTT10=
EXTT11=
EXTT12=
EXTT13=
PLAYORDER=
